<svg xmlns="http://www.w3.org/2000/svg" width="1200" height="400" viewBox="0 0 1200 400" role="img" aria-labelledby="title desc">
  <title id="title">Levara — контекст, который переживает сессию</title>
  <desc id="desc">Светлая редакционная обложка на основе проектной карты памяти Levara room × hall.</desc>

  <rect width="1200" height="400" rx="28" fill="#F4F1E9"/>
  <rect x="1" y="1" width="1198" height="398" rx="27" fill="none" stroke="#D3CEC1" stroke-width="2"/>

  <defs>
    <g id="memory-cell">
      <rect width="104" height="66" rx="12" fill="#ECE7DB" stroke="#CFC8B8"/>
      <circle cx="18" cy="18" r="5" fill="#A8A08F"/>
      <path d="M18 24V47H83" fill="none" stroke="#B9B09D" stroke-width="2"/>
      <rect x="31" y="14" width="50" height="7" rx="3.5" fill="#C4BBA8"/>
      <rect x="31" y="29" width="38" height="7" rx="3.5" fill="#D2CBBB"/>
    </g>
  </defs>

  <g font-family="-apple-system, BlinkMacSystemFont, Segoe UI, Arial, sans-serif">
    <g transform="translate(58 46)">
      <text x="0" y="0" fill="#2658D8" font-family="ui-monospace, SFMono-Regular, Menlo, monospace" font-size="15" font-weight="700" letter-spacing="1.5">ПОСТОЯННЫЙ КОНТЕКСТ ДЛЯ AI-АГЕНТОВ</text>
      <text x="0" y="74" fill="#17202A" font-size="66" font-weight="760" letter-spacing="-2.8">Levara</text>
      <text x="0" y="132" fill="#17202A" font-size="37" font-weight="620" letter-spacing="-1.2">Контекст, который</text>
      <text x="0" y="177" fill="#17202A" font-size="37" font-weight="620" letter-spacing="-1.2">переживает сессию.</text>
      <text x="0" y="226" fill="#5B6570" font-size="20">Сохраняйте решения. Ищите знания проекта.</text>
      <text x="0" y="255" fill="#5B6570" font-size="20">Продолжайте проверенную работу без пересказа чата.</text>

      <g transform="translate(0 298)" font-family="ui-monospace, SFMono-Regular, Menlo, monospace" font-size="14">
        <text x="0" y="0" fill="#2658D8">01</text>
        <text x="30" y="0" fill="#59636E">помнить</text>
        <path d="M104 -5H136" stroke="#A29B8D"/>
        <text x="152" y="0" fill="#2658D8">02</text>
        <text x="182" y="0" fill="#59636E">проверить</text>
        <path d="M270 -5H302" stroke="#A29B8D"/>
        <text x="318" y="0" fill="#2658D8">03</text>
        <text x="348" y="0" fill="#59636E">продолжить</text>
      </g>
    </g>

    <g transform="translate(662 42)">
      <text x="0" y="0" fill="#777061" font-family="ui-monospace, SFMono-Regular, Menlo, monospace" font-size="14" letter-spacing="1.5">КАРТА ПАМЯТИ</text>
      <g transform="translate(0 34)">
        <text x="102" y="0" text-anchor="middle" fill="#756E60" font-family="ui-monospace, SFMono-Regular, Menlo, monospace" font-size="13">ФАКТ</text>
        <text x="258" y="0" text-anchor="middle" fill="#756E60" font-family="ui-monospace, SFMono-Regular, Menlo, monospace" font-size="13">РЕШЕНИЕ</text>
        <text x="414" y="0" text-anchor="middle" fill="#756E60" font-family="ui-monospace, SFMono-Regular, Menlo, monospace" font-size="13">ОТКРЫТИЕ</text>
        <text x="0" y="70" fill="#777061" font-family="ui-monospace, SFMono-Regular, Menlo, monospace" font-size="13">ДОСТУП</text>
        <text x="0" y="154" fill="#777061" font-family="ui-monospace, SFMono-Regular, Menlo, monospace" font-size="13">ДЕПЛОЙ</text>
        <text x="0" y="238" fill="#777061" font-family="ui-monospace, SFMono-Regular, Menlo, monospace" font-size="13">ПАМЯТЬ</text>

        <g transform="translate(50 22)">
          <use href="#memory-cell"/>
          <use href="#memory-cell" x="312"/>
          <use href="#memory-cell" y="84"/>
          <use href="#memory-cell" x="156" y="84"/>
          <use href="#memory-cell" y="168"/>
          <use href="#memory-cell" x="312" y="168"/>

          <g transform="translate(156)">
            <rect width="104" height="66" rx="12" fill="#2658D8"/>
            <circle cx="18" cy="18" r="5" fill="#C7D5FF"/>
            <path d="M18 24V47H83" fill="none" stroke="#9DB5FF" stroke-width="2"/>
            <rect x="31" y="14" width="50" height="7" rx="3.5" fill="#DCE5FF"/>
            <rect x="31" y="29" width="38" height="7" rx="3.5" fill="#AFC2FF"/>
          </g>
          <g transform="translate(312 84)">
            <rect width="104" height="66" rx="12" fill="#DFF3EA" stroke="#89BFA7"/>
            <circle cx="18" cy="18" r="5" fill="#28835E"/>
            <path d="M18 24V47H83" fill="none" stroke="#63A98D" stroke-width="2"/>
            <rect x="31" y="14" width="50" height="7" rx="3.5" fill="#89C8AD"/>
            <rect x="31" y="29" width="38" height="7" rx="3.5" fill="#B4DDCA"/>
          </g>
          <g transform="translate(156 168)">
            <rect width="104" height="66" rx="12" fill="#FFE9C8" stroke="#D8A95D"/>
            <circle cx="18" cy="18" r="5" fill="#BB7620"/>
            <path d="M18 24V47H83" fill="none" stroke="#D5A052" stroke-width="2"/>
            <rect x="31" y="14" width="50" height="7" rx="3.5" fill="#E7B767"/>
            <rect x="31" y="29" width="38" height="7" rx="3.5" fill="#F2CF91"/>
          </g>
        </g>

        <path d="M312 55C395 55 366 274 465 274" fill="none" stroke="#2658D8" stroke-width="3" stroke-linecap="round"/>
        <circle cx="312" cy="55" r="6" fill="#2658D8"/>
        <circle cx="465" cy="274" r="6" fill="#2658D8"/>
        <text x="465" y="302" text-anchor="end" fill="#2658D8" font-family="ui-monospace, SFMono-Regular, Menlo, monospace" font-size="13" font-weight="700">ВОССТАНОВЛЕНО С PROVENANCE</text>
      </g>
    </g>
  </g>
</svg>
